<mxfile host="65bd71144e">
    <diagram name="第 1 页" id="rFcaaIZD5_DY6oB-ytW5">
        <mxGraphModel dx="548" dy="469" grid="1" gridSize="10" guides="1" tooltips="1" connect="1" arrows="1" fold="1" page="1" pageScale="1" pageWidth="827" pageHeight="1169" background="#ffffff" math="0" shadow="0">
            <root>
                <mxCell id="0"/>
                <mxCell id="1" parent="0"/>
                <mxCell id="KCVfrBEjZ5k7IFRmROUr-1" value="使用者登入" style="rounded=1;whiteSpace=wrap;html=1;arcSize=40;fontColor=#000000;fillColor=#FFFFFF;strokeColor=#000000;" parent="1" vertex="1">
                    <mxGeometry x="380" y="200" width="120" height="40" as="geometry"/>
                </mxCell>
                <mxCell id="KCVfrBEjZ5k7IFRmROUr-2" value="" style="edgeStyle=orthogonalEdgeStyle;html=1;verticalAlign=bottom;endArrow=open;endSize=8;strokeColor=#000000;rounded=0;" parent="1" source="KCVfrBEjZ5k7IFRmROUr-1" edge="1">
                    <mxGeometry relative="1" as="geometry">
                        <mxPoint x="440" y="300" as="targetPoint"/>
                    </mxGeometry>
                </mxCell>
                <mxCell id="KCVfrBEjZ5k7IFRmROUr-3" value="" style="ellipse;html=1;shape=startState;fillColor=#000000;strokeColor=#000000;" parent="1" vertex="1">
                    <mxGeometry x="425" y="110" width="30" height="30" as="geometry"/>
                </mxCell>
                <mxCell id="KCVfrBEjZ5k7IFRmROUr-4" value="" style="edgeStyle=orthogonalEdgeStyle;html=1;verticalAlign=bottom;endArrow=open;endSize=8;strokeColor=#000000;rounded=0;" parent="1" source="KCVfrBEjZ5k7IFRmROUr-3" edge="1">
                    <mxGeometry relative="1" as="geometry">
                        <mxPoint x="440" y="200" as="targetPoint"/>
                    </mxGeometry>
                </mxCell>
                <mxCell id="KCVfrBEjZ5k7IFRmROUr-5" value="使用者填入帳號密碼" style="rounded=1;whiteSpace=wrap;html=1;arcSize=40;fontColor=#000000;fillColor=#FFFFFF;strokeColor=#000000;" parent="1" vertex="1">
                    <mxGeometry x="380" y="300" width="120" height="40" as="geometry"/>
                </mxCell>
                <mxCell id="KCVfrBEjZ5k7IFRmROUr-6" value="" style="edgeStyle=orthogonalEdgeStyle;html=1;verticalAlign=bottom;endArrow=open;endSize=8;strokeColor=#000000;rounded=0;" parent="1" source="KCVfrBEjZ5k7IFRmROUr-5" edge="1">
                    <mxGeometry relative="1" as="geometry">
                        <mxPoint x="440" y="400" as="targetPoint"/>
                    </mxGeometry>
                </mxCell>
                <mxCell id="KCVfrBEjZ5k7IFRmROUr-7" value="檢查帳號密碼&lt;br&gt;&lt;span style=&quot;background-color: initial;&quot;&gt;是否正確&lt;/span&gt;" style="rhombus;whiteSpace=wrap;html=1;fontColor=#000000;fillColor=#FFFFFF;strokeColor=#000000;" parent="1" vertex="1">
                    <mxGeometry x="380" y="400" width="120" height="90" as="geometry"/>
                </mxCell>
                <mxCell id="KCVfrBEjZ5k7IFRmROUr-8" value="no" style="edgeStyle=orthogonalEdgeStyle;html=1;align=left;verticalAlign=bottom;endArrow=open;endSize=8;strokeColor=#000000;rounded=0;entryX=1.023;entryY=0.53;entryDx=0;entryDy=0;entryPerimeter=0;labelBackgroundColor=#FFFFFF;fontColor=#000000;" parent="1" source="KCVfrBEjZ5k7IFRmROUr-7" target="KCVfrBEjZ5k7IFRmROUr-5" edge="1">
                    <mxGeometry x="-0.0393" relative="1" as="geometry">
                        <mxPoint x="600" y="445" as="targetPoint"/>
                        <Array as="points">
                            <mxPoint x="530" y="445"/>
                            <mxPoint x="530" y="321"/>
                        </Array>
                        <mxPoint as="offset"/>
                    </mxGeometry>
                </mxCell>
                <mxCell id="KCVfrBEjZ5k7IFRmROUr-9" value="yes" style="edgeStyle=orthogonalEdgeStyle;html=1;align=left;verticalAlign=top;endArrow=open;endSize=8;strokeColor=#000000;rounded=0;fontColor=#000000;labelBackgroundColor=#FFFFFF;" parent="1" source="KCVfrBEjZ5k7IFRmROUr-7" edge="1">
                    <mxGeometry x="-1" relative="1" as="geometry">
                        <mxPoint x="440" y="540" as="targetPoint"/>
                    </mxGeometry>
                </mxCell>
                <mxCell id="KCVfrBEjZ5k7IFRmROUr-13" value="登入成功" style="rounded=1;whiteSpace=wrap;html=1;arcSize=40;fontColor=#000000;fillColor=#FFFFFF;strokeColor=#000000;" parent="1" vertex="1">
                    <mxGeometry x="380" y="540" width="120" height="40" as="geometry"/>
                </mxCell>
                <mxCell id="KCVfrBEjZ5k7IFRmROUr-14" value="" style="edgeStyle=orthogonalEdgeStyle;html=1;verticalAlign=bottom;endArrow=open;endSize=8;strokeColor=#000000;rounded=0;" parent="1" source="KCVfrBEjZ5k7IFRmROUr-13" edge="1">
                    <mxGeometry relative="1" as="geometry">
                        <mxPoint x="440" y="640" as="targetPoint"/>
                    </mxGeometry>
                </mxCell>
                <mxCell id="KCVfrBEjZ5k7IFRmROUr-15" value="" style="ellipse;html=1;shape=endState;fillColor=#000000;strokeColor=#000000;" parent="1" vertex="1">
                    <mxGeometry x="425" y="640" width="30" height="30" as="geometry"/>
                </mxCell>
            </root>
        </mxGraphModel>
    </diagram>
</mxfile>